HIERARCHY
ROOT Hips
{
	OFFSET 0.000000 0.000000 0.000000
	CHANNELS 6 Xposition Yposition Zposition Zrotation Yrotation Xrotation 
	JOINT LowerBack
	{
		OFFSET 0.000000 0.000000 0.000000
		CHANNELS 3 Zrotation Yrotation Xrotation
		JOINT Spine
		{
			OFFSET 0.028270 2.035590 -0.193380
			CHANNELS 3 Zrotation Yrotation Xrotation
			JOINT Spine1
			{
				OFFSET 0.056720 2.048850 -0.042750
				CHANNELS 3 Zrotation Yrotation Xrotation
				JOINT Neck
				{
					OFFSET 0.000000 0.000000 0.000000
					CHANNELS 3 Zrotation Yrotation Xrotation
					JOINT Neck1
					{
						OFFSET -0.054170 1.746240 0.172020
						CHANNELS 3 Zrotation Yrotation Xrotation
						JOINT Head
						{
							OFFSET 0.104070 1.761360 -0.123970
							CHANNELS 3 Zrotation Yrotation Xrotation
							End Site
							{
								OFFSET 0.000000 0.000000 0.000000
							}
						}
					}
				}
				JOINT LeftShoulder
				{
					OFFSET 0.000000 0.000000 0.000000
					CHANNELS 3 Zrotation Yrotation Xrotation
					JOINT LeftArm
					{
						OFFSET 3.362410 1.200890 -0.311210
						CHANNELS 3 Zrotation Yrotation Xrotation
						JOINT LeftForeArm
						{
							OFFSET 4.983000 -0.000000 -0.000000
							CHANNELS 3 Zrotation Yrotation Xrotation
							JOINT LeftHand
							{
								OFFSET 3.483560 -0.000000 -0.000000
								CHANNELS 3 Zrotation Yrotation Xrotation
								JOINT LeftFingerBase
								{
									OFFSET 0.000000 0.000000 0.000000
									CHANNELS 3 Zrotation Yrotation Xrotation
									JOINT LeftHandIndex1
									{
										OFFSET 0.715260 -0.000000 -0.000000
										CHANNELS 3 Zrotation Yrotation Xrotation
										End Site
										{
											OFFSET 0.000000 0.000000 0.000000
										}
									}
								}
								JOINT LThumb
								{
									OFFSET 0.000000 0.000000 0.000000
									CHANNELS 3 Zrotation Yrotation Xrotation
									End Site
									{
										OFFSET 0.000000 0.000000 0.000000
									}
								}
							}
						}
					}
				}
				JOINT RightShoulder
				{
					OFFSET 0.000000 0.000000 0.000000
					CHANNELS 3 Zrotation Yrotation Xrotation
					JOINT RightArm
					{
						OFFSET -3.136600 1.374050 -0.404650
						CHANNELS 3 Zrotation Yrotation Xrotation
						JOINT RightForeArm
						{
							OFFSET -5.241900 -0.000000 -0.000000
							CHANNELS 3 Zrotation Yrotation Xrotation
							JOINT RightHand
							{
								OFFSET -3.444170 -0.000000 -0.000000
								CHANNELS 3 Zrotation Yrotation Xrotation
								JOINT RightFingerBase
								{
									OFFSET 0.000000 0.000000 0.000000
									CHANNELS 3 Zrotation Yrotation Xrotation
									JOINT RightHandIndex1
									{
										OFFSET -0.622530 -0.000000 -0.000000
										CHANNELS 3 Zrotation Yrotation Xrotation
										End Site
										{
											OFFSET 0.000000 0.000000 0.000000
										}
									}
								}
								JOINT RThumb
								{
									OFFSET 0.000000 0.000000 0.000000
									CHANNELS 3 Zrotation Yrotation Xrotation
									End Site
									{
										OFFSET 0.000000 0.000000 0.000000
									}
								}
							}
						}
					}
				}
			}
		}
	}
}
}
MOTION
Frames: 18
Frame Time: 0.008333
-2.711282 16.705141 -1.925991 44.714233 87.185644 64.884425 -6.618094 -1.708557 -5.696866 -1.882005 -1.359603 -4.006545 -5.577765 -1.432738 -0.023856 14.004323 -8.249700 -6.088148 -2.251689 -0.193515 0.416395 0.000000 0.000000 0.000000 -1.474709 10.712004 0.760210 -68.907242 22.192542 7.044572 -0.263677 -86.468040 -0.027901 10.430378 2.094264 0.182607 -0.156397 0.144474 -0.000000 0.000000 0.000000 0.000000 0.000000 0.000000 0.000000 11.924486 -2.373694 0.635635 59.176379 27.034078 32.125980 179.290095 82.914577 -179.960663 4.764086 4.910385 0.227149 -0.031631 -0.487945 -0.000000 0.000000 0.000000 0.000000 0.000000 0.000000 0.000000 
-2.531450 16.664523 -1.915083 45.046403 86.898656 65.050374 -6.902892 -1.799347 -5.542433 -1.945082 -1.422835 -3.972406 -5.639786 -1.493647 -0.021150 14.166563 -8.225965 -6.076171 -2.247791 -0.192813 0.413758 0.000000 0.000000 0.000000 -1.784815 10.892969 0.804415 -68.335401 21.453511 7.306561 -0.294164 -85.814012 -0.028816 10.863692 2.101247 0.191048 -0.163700 0.142512 -0.000000 0.000000 0.000000 0.000000 0.000000 0.000000 0.000000 11.990161 -2.380521 0.542174 59.667581 26.817287 31.801946 179.295709 82.894194 -179.960442 4.791643 4.956955 0.230727 -0.034447 -0.491588 -0.000000 0.000000 0.000000 0.000000 0.000000 0.000000 0.000000 
-2.356069 16.634838 -1.902729 44.603787 86.521894 64.468817 -7.199134 -1.861531 -5.393331 -2.013273 -1.456753 -3.941414 -5.713222 -1.525362 -0.026038 14.298968 -8.219716 -6.065555 -2.249446 -0.192496 0.410450 0.000000 0.000000 0.000000 -2.098005 11.057728 0.851219 -67.753166 20.514984 7.593926 -0.329258 -85.040530 -0.029782 11.305447 2.095005 0.198389 -0.171162 0.141023 -0.000000 0.000000 0.000000 0.000000 0.000000 0.000000 0.000000 12.044106 -2.394066 0.429587 60.328115 26.455775 31.433491 179.315651 82.993179 -179.960891 4.721274 4.974260 0.228227 -0.035131 -0.494285 -0.000000 0.000000 0.000000 0.000000 0.000000 0.000000 0.000000 
-2.184769 16.616391 -1.888668 43.502180 86.048252 63.245843 -7.513903 -1.893565 -5.248436 -2.087881 -1.459282 -3.912450 -5.797258 -1.525734 -0.034372 14.410131 -8.236014 -6.058658 -2.257183 -0.192570 0.405750 0.000000 0.000000 0.000000 -2.381381 11.211979 0.897684 -67.194091 19.391644 7.899930 -0.368576 -84.159030 -0.030788 11.742288 2.073753 0.203927 -0.178532 0.140128 0.000000 0.000000 0.000000 0.000000 0.000000 0.000000 0.000000 12.103649 -2.420239 0.301964 61.131125 25.967016 31.031199 179.349081 83.200270 -179.962057 4.548254 4.955498 0.219148 -0.033614 -0.495934 -0.000000 0.000000 0.000000 0.000000 0.000000 0.000000 0.000000 
-2.016879 16.609042 -1.873882 41.679343 85.488923 61.312167 -7.816993 -1.891666 -5.110723 -2.162363 -1.429290 -3.887487 -5.890570 -1.493795 -0.050649 14.497357 -8.266767 -6.049283 -2.271487 -0.193190 0.401799 0.000000 0.000000 0.000000 -2.639640 11.336068 0.940219 -66.681075 18.148665 8.195395 -0.410138 -83.221253 -0.031792 12.156919 2.040246 0.207560 -0.185510 0.139785 0.000000 0.000000 0.000000 0.000000 0.000000 0.000000 0.000000 12.168324 -2.451125 0.164981 62.041654 25.358006 30.600515 179.393759 83.498705 -179.963923 4.279581 4.897773 0.204086 -0.030195 -0.496438 -0.000000 0.000000 0.000000 0.000000 0.000000 0.000000 0.000000 
-1.851832 16.612231 -1.858915 39.301919 84.850284 58.821313 -8.091791 -1.857285 -4.977466 -2.232990 -1.369580 -3.866170 -5.991007 -1.432296 -0.075200 14.563294 -8.306686 -6.033929 -2.292769 -0.194451 0.399769 0.000000 0.000000 0.000000 -2.862530 11.423266 0.975505 -66.238478 16.838692 8.461625 -0.452082 -82.271141 -0.032773 12.532992 1.998103 0.209288 -0.191841 0.140013 0.000000 0.000000 0.000000 0.000000 0.000000 0.000000 0.000000 12.245280 -2.483308 0.024218 63.021455 24.649148 30.150860 179.447122 83.871432 -179.966419 3.928628 4.802779 0.184037 -0.025294 -0.495805 -0.000000 0.000000 0.000000 0.000000 0.000000 0.000000 0.000000 
-1.688968 16.625055 -1.844036 36.620838 84.138795 56.011469 -8.329023 -1.796600 -4.843897 -2.297303 -1.286984 -3.846504 -6.095387 -1.347874 -0.104236 14.613950 -8.356469 -6.012411 -2.321344 -0.196380 0.399790 0.000000 0.000000 0.000000 -3.036013 11.476610 1.000202 -65.886548 15.502549 8.689956 -0.492592 -81.348229 -0.033730 12.856468 1.951379 0.209309 -0.197367 0.140870 0.000000 0.000000 0.000000 0.000000 0.000000 0.000000 0.000000 12.347389 -2.521500 -0.114456 64.028819 23.876509 29.700360 179.506181 84.302756 -179.969435 3.512028 4.675670 0.160496 -0.019269 -0.494087 -0.000000 0.000000 0.000000 0.000000 0.000000 0.000000 0.000000 
-1.527629 16.646470 -1.829847 33.801894 83.369583 53.042180 -8.510240 -1.717253 -4.709616 -2.350883 -1.190621 -3.828296 -6.200637 -1.249597 -0.137951 14.650086 -8.409499 -5.980910 -2.357152 -0.199039 0.403193 0.000000 0.000000 0.000000 -3.159526 11.488961 1.012341 -65.635094 14.194785 8.866601 -0.529357 -80.501715 -0.034662 13.116546 1.905484 0.208024 -0.201990 0.142363 0.000000 0.000000 0.000000 0.000000 0.000000 0.000000 0.000000 12.475663 -2.562847 -0.246837 65.030179 23.060965 29.262507 179.567643 84.775135 -179.972790 3.056753 4.523196 0.135558 -0.012735 -0.491337 -0.000000 0.000000 0.000000 0.000000 0.000000 0.000000 0.000000 
-1.367167 16.675300 -1.816730 31.019530 82.561077 50.085718 -8.624591 -1.630108 -4.574790 -2.390677 -1.092142 -3.810706 -6.303351 -1.149026 -0.174178 14.673463 -8.463038 -5.938214 -2.399827 -0.202423 0.410507 0.000000 0.000000 0.000000 -3.230685 11.459715 1.010886 -65.487861 12.954397 8.987443 -0.560457 -79.771160 -0.035579 13.306334 1.864859 0.205935 -0.205703 0.144531 0.000000 0.000000 0.000000 0.000000 0.000000 0.000000 0.000000 12.631389 -2.609553 -0.370077 65.996492 22.225325 28.853088 179.628423 85.272719 -179.976272 2.591918 4.352902 0.111016 -0.006260 -0.487613 -0.000000 0.000000 0.000000 0.000000 0.000000 0.000000 0.000000 
-1.207078 16.710396 -1.804858 28.409795 81.736683 47.280896 -8.665700 -1.547637 -4.441183 -2.414407 -1.004413 -3.793032 -6.400267 -1.058970 -0.210446 14.684654 -8.515769 -5.884155 -2.448628 -0.206477 0.421953 0.000000 0.000000 0.000000 -3.249380 11.389141 0.996042 -65.439951 11.809159 9.054148 -0.584449 -79.187208 -0.036500 13.424653 1.833038 0.203644 -0.208587 0.147409 0.000000 0.000000 0.000000 0.000000 0.000000 0.000000 0.000000 12.812047 -2.665781 -0.483034 66.906769 21.387455 28.486217 179.685890 85.781054 -179.979660 2.147075 4.172132 0.088468 -0.000380 -0.482971 -0.000000 0.000000 0.000000 0.000000 0.000000 0.000000 0.000000 
-1.046938 16.750587 -1.794240 26.061853 80.923635 44.723656 -8.631290 -1.482315 -4.311520 -2.420576 -0.939956 -3.774724 -6.488606 -0.991943 -0.244173 14.683101 -8.567625 -5.819829 -2.502498 -0.211103 0.437367 0.000000 0.000000 0.000000 -3.217938 11.279492 0.969115 -65.479133 10.773430 9.075038 -0.600555 -78.769334 -0.037442 13.474763 1.812055 0.201454 -0.210784 0.151025 0.000000 0.000000 0.000000 0.000000 0.000000 0.000000 0.000000 13.011727 -2.736774 -0.586169 67.748432 20.558754 28.171677 179.738005 86.286968 -179.982743 1.750027 3.987523 0.069307 0.004417 -0.477474 -0.000000 0.000000 0.000000 0.000000 0.000000 0.000000 0.000000 
-0.886550 16.794900 -1.784749 24.028379 80.149855 42.475328 -8.523666 -1.445364 -4.188285 -2.408642 -0.909659 -3.754978 -6.566159 -0.958817 -0.271711 14.667886 -8.621249 -5.748632 -2.560244 -0.216152 0.455875 0.000000 0.000000 0.000000 -3.139815 11.138708 0.932123 -65.587485 9.841989 9.067295 -0.608899 -78.521231 -0.038427 13.464656 1.802136 0.199667 -0.212500 0.155407 0.000000 0.000000 0.000000 0.000000 0.000000 0.000000 0.000000 13.223920 -2.829886 -0.681090 68.514520 19.748537 27.914417 179.783401 86.779198 -179.985350 1.423012 3.804012 0.054034 0.007775 -0.471183 0.000000 0.000000 0.000000 0.000000 0.000000 0.000000 0.000000 
-0.725785 16.842406 -1.776177 22.308168 79.441791 40.546200 -8.343604 -1.444258 -4.076568 -2.378065 -0.920891 -3.734800 -6.631758 -0.967118 -0.293784 14.634971 -8.675923 -5.671261 -2.620640 -0.221522 0.477420 0.000000 0.000000 0.000000 -3.023862 10.960708 0.887736 -65.741307 9.019123 9.040533 -0.609651 -78.446169 -0.039457 13.403401 1.801960 0.198187 -0.213868 0.160532 0.000000 0.000000 0.000000 0.000000 0.000000 0.000000 0.000000 13.435965 -2.947344 -0.769296 69.205898 18.951770 27.709070 179.821339 87.247651 -179.987349 1.184483 3.626684 0.043246 0.009353 -0.464211 0.000000 0.000000 0.000000 0.000000 0.000000 0.000000 0.000000 
-0.564774 16.892390 -1.768154 20.896253 78.820167 38.940106 -8.098015 -1.483787 -3.978131 -2.329767 -0.977825 -3.713872 -6.684978 -1.021039 -0.307884 14.582630 -8.736016 -5.592515 -2.682672 -0.227057 0.500631 0.000000 0.000000 0.000000 -2.875826 10.753775 0.838516 -65.915656 8.279807 9.017438 -0.604043 -78.526087 -0.040545 13.303982 1.808629 0.196914 -0.215103 0.166402 0.000000 0.000000 0.000000 0.000000 0.000000 0.000000 0.000000 13.641143 -3.095225 -0.852570 69.824026 18.170934 27.547919 179.851665 87.684775 -179.988645 1.042745 3.458433 0.036542 0.009049 -0.456664 -0.000000 0.000000 0.000000 0.000000 0.000000 0.000000 0.000000 
-0.403745 16.944263 -1.760291 19.762462 78.298277 37.634923 -7.792824 -1.564297 -3.895031 -2.264930 -1.080368 -3.692961 -6.726418 -1.120579 -0.314711 14.508243 -8.805092 -5.515317 -2.745574 -0.232657 0.524672 0.000000 0.000000 0.000000 -2.703334 10.514907 0.786856 -66.084582 7.609900 9.011731 -0.593113 -78.743988 -0.041689 13.178179 1.818498 0.195450 -0.216324 0.172973 0.000000 0.000000 0.000000 0.000000 0.000000 0.000000 0.000000 13.831785 -3.276800 -0.931473 70.373884 17.402247 27.416969 179.874505 88.085123 -179.989347 0.999513 3.302402 0.033724 0.006879 -0.448696 -0.000000 0.000000 0.000000 0.000000 0.000000 0.000000 0.000000 
-0.243087 16.997511 -1.752133 18.882449 77.880316 36.608915 -7.438914 -1.683243 -3.824974 -2.186049 -1.225097 -3.671428 -6.757428 -1.262239 -0.312315 14.411984 -8.887518 -5.445665 -2.808747 -0.238181 0.547664 0.000000 0.000000 0.000000 -2.509122 10.258449 0.735074 -66.225073 6.968340 9.049627 -0.578705 -79.065180 -0.042902 13.038591 1.827663 0.193795 -0.217731 0.180239 0.000000 0.000000 0.000000 0.000000 0.000000 0.000000 0.000000 14.005727 -3.493969 -1.007072 70.859232 16.646358 27.299824 179.890644 88.443685 -179.989304 1.047567 3.160326 0.033995 0.003017 -0.440475 -0.000000 0.000000 0.000000 0.000000 0.000000 0.000000 0.000000 
-0.083172 17.051650 -1.743275 18.220923 77.561629 35.827227 -7.045780 -1.834407 -3.764923 -2.095766 -1.405077 -3.649385 -6.780008 -1.439054 -0.301796 14.293756 -8.986459 -5.386869 -2.871893 -0.243556 0.568487 0.000000 0.000000 0.000000 -2.296277 9.986703 0.684994 -66.316908 6.331814 9.144463 -0.562051 -79.462616 -0.044192 12.894433 1.832868 0.191450 -0.219407 0.188149 0.000000 0.000000 0.000000 0.000000 0.000000 0.000000 0.000000 14.161075 -3.745913 -1.078859 71.284763 15.900995 27.178091 179.900545 88.758079 -179.988968 1.174488 3.034108 0.036756 -0.002261 -0.432195 -0.000000 0.000000 0.000000 0.000000 0.000000 0.000000 0.000000 
0.075543 17.106279 -1.733407 17.739980 77.329540 35.249251 -6.622607 -2.009249 -3.711714 -1.996975 -1.611092 -3.627667 -6.796626 -1.641848 -0.287242 14.153668 -9.105258 -5.339359 -2.935147 -0.248793 0.586852 0.000000 0.000000 0.000000 -2.067994 9.686883 0.637760 -66.343887 5.698385 9.293974 -0.543574 -79.921297 -0.045528 12.750175 1.832610 0.188412 -0.221282 0.196596 0.000000 0.000000 0.000000 0.000000 0.000000 0.000000 0.000000 14.297572 -4.031320 -1.144395 71.655583 15.165741 27.036046 179.905541 89.029949 -179.988144 1.363471 2.926422 0.041211 -0.008565 -0.424086 -0.000000 0.000000 0.000000 0.000000 0.000000 0.000000 0.000000 
